<?xml version="1.0" standalone="no"?><svg xmlns="http://www.w3.org/2000/svg" viewBox="0 0 1440 320"><path fill=" #bde6d1" fill-opacity="1" d="M0,320L20,293.3C40,267,80,213,120,181.3C160,149,200,139,240,165.3C280,192,320,256,360,250.7C400,245,440,171,480,165.3C520,160,560,224,600,218.7C640,213,680,139,720,96C760,53,800,43,840,69.3C880,96,920,160,960,186.7C1000,213,1040,203,1080,170.7C1120,139,1160,85,1200,90.7C1240,96,1280,160,1320,181.3C1360,203,1400,181,1420,170.7L1440,160L1440,320L1420,320C1400,320,1360,320,1320,320C1280,320,1240,320,1200,320C1160,320,1120,320,1080,320C1040,320,1000,320,960,320C920,320,880,320,840,320C800,320,760,320,720,320C680,320,640,320,600,320C560,320,520,320,480,320C440,320,400,320,360,320C320,320,280,320,240,320C200,320,160,320,120,320C80,320,40,320,20,320L0,320Z"></path></svg>